<svg id="Layer_1" data-name="Layer 1" xmlns="http://www.w3.org/2000/svg" viewBox="0 0 2817.03 2817.03"><defs><style>.cls-1{fill:#00a651;}.cls-2{fill:#231f20;}.cls-3{fill:#fff;}</style></defs><circle class="cls-1" cx="1408.52" cy="1408.52" r="1408"/><path class="cls-2" d="M1500,2908.52c-190.15,0-374.61-37.24-548.26-110.69a1412.68,1412.68,0,0,1-749.57-749.57C128.72,1874.61,91.48,1690.15,91.48,1500s37.24-374.61,110.69-548.26A1412.68,1412.68,0,0,1,951.74,202.17C1125.39,128.72,1309.85,91.48,1500,91.48s374.61,37.24,548.26,110.69a1412.68,1412.68,0,0,1,749.57,749.57c73.45,173.65,110.69,358.11,110.69,548.26s-37.24,374.61-110.69,548.26a1412.68,1412.68,0,0,1-749.57,749.57C1874.61,2871.28,1690.15,2908.52,1500,2908.52Zm0-2816C723.91,92.52,92.52,723.91,92.52,1500S723.91,2907.48,1500,2907.48,2907.48,2276.09,2907.48,1500,2276.09,92.52,1500,92.52Z" transform="translate(-91.48 -91.48)"/><rect class="cls-3" x="1548.36" y="384.35" width="380.72" height="2231.3" rx="190.36" transform="translate(1069.37 -813.92) rotate(34.64)"/><rect class="cls-3" x="775.65" y="1472.97" width="380.72" height="1054.86" rx="190.36" transform="translate(-1198.91 1111.65) rotate(-43.19)"/></svg>