<svg id="Layer_1" data-name="Layer 1" xmlns="http://www.w3.org/2000/svg" viewBox="0 0 2817.03 2817.03"><defs><style>.cls-1{fill:#ed1c24;}.cls-2{fill:#231f20;}.cls-3{fill:#fff;}</style></defs><circle class="cls-1" cx="1408.52" cy="1408.52" r="1408"/><path class="cls-2" d="M1500,2908.52c-190.15,0-374.61-37.24-548.26-110.69a1412.68,1412.68,0,0,1-749.57-749.57C128.72,1874.61,91.48,1690.15,91.48,1500s37.24-374.61,110.69-548.26A1412.68,1412.68,0,0,1,951.74,202.17C1125.39,128.72,1309.85,91.48,1500,91.48s374.61,37.24,548.26,110.69a1412.68,1412.68,0,0,1,749.57,749.57c73.45,173.65,110.69,358.11,110.69,548.26s-37.24,374.61-110.69,548.26a1412.68,1412.68,0,0,1-749.57,749.57C1874.61,2871.28,1690.15,2908.52,1500,2908.52Zm0-2816C723.91,92.52,92.52,723.91,92.52,1500S723.91,2907.48,1500,2907.48,2907.48,2276.09,2907.48,1500,2276.09,92.52,1500,92.52Z" transform="translate(-91.48 -91.48)"/><rect class="cls-3" x="1309.64" y="384.35" width="380.72" height="2231.3" rx="190.36" transform="translate(1027.05 -678.22) rotate(34.64)"/><path class="cls-2" d="M973.77,2452a189.74,189.74,0,0,1-108.19-33.76l.26-.38-.26.37c-86.56-59.8-108.33-178.88-48.52-265.44L1869,630.27c59.81-86.56,178.88-108.33,265.45-48.53a190.8,190.8,0,0,1,48.52,265.45L1131,2369.73A190.8,190.8,0,0,1,973.77,2452ZM2026.23,548.88a189.87,189.87,0,0,0-156.52,81.9L817.8,2153.32c-59.52,86.15-37.86,204.67,48.29,264.19a188.53,188.53,0,0,0,107.55,33.72,191.74,191.74,0,0,0,34.55-3.15,188.69,188.69,0,0,0,122.1-78.86L2182.2,846.68a189.83,189.83,0,0,0-156-297.8Z" transform="translate(-91.48 -91.48)"/><rect class="cls-3" x="1309.64" y="384.35" width="380.72" height="2231.3" rx="190.36" transform="translate(3495.26 1789.98) rotate(145.36)"/></svg>