<svg id="Layer_1" data-name="Layer 1" xmlns="http://www.w3.org/2000/svg" viewBox="0 0 2817.03 2817.03"><defs><style>.cls-1{fill:#fbb040;}.cls-2{fill:#231f20;}.cls-3{fill:#fff;}</style></defs><circle class="cls-1" cx="1408.52" cy="1408.52" r="1408"/><path class="cls-2" d="M1500,2908.52c-190.15,0-374.61-37.24-548.26-110.69a1412.68,1412.68,0,0,1-749.57-749.57C128.72,1874.61,91.48,1690.15,91.48,1500s37.24-374.61,110.69-548.26A1412.68,1412.68,0,0,1,951.74,202.17C1125.39,128.72,1309.85,91.48,1500,91.48s374.61,37.24,548.26,110.69a1412.68,1412.68,0,0,1,749.57,749.57c73.45,173.65,110.69,358.11,110.69,548.26s-37.24,374.61-110.69,548.26a1412.68,1412.68,0,0,1-749.57,749.57C1874.61,2871.28,1690.15,2908.52,1500,2908.52Zm0-2816C723.91,92.52,92.52,723.91,92.52,1500S723.91,2907.48,1500,2907.48,2907.48,2276.09,2907.48,1500,2276.09,92.52,1500,92.52Z" transform="translate(-91.48 -91.48)"/><circle class="cls-3" cx="1386.45" cy="1408.52" r="921.56"/><circle class="cls-1" cx="1386.45" cy="1408.52" r="574.31"/><path class="cls-3" d="M1202.33,1614.75h0c104,15.36,194-10.67,201-58.14L1526.74,721c7-47.47-71.62-98.41-175.63-113.76h0c-104-15.36-194,10.67-201,58.14L1026.7,1501C1019.69,1548.46,1098.32,1599.4,1202.33,1614.75Z" transform="translate(-91.48 -91.48)"/><path class="cls-3" d="M496.52,638.67h0c-23,102.58-3.71,194.26,43.11,204.76l824.21,184.92c46.82,10.51,103.44-64.14,126.45-166.72h0c23-102.58,3.72-194.26-43.11-204.76L623,472C576.15,461.44,519.54,536.09,496.52,638.67Z" transform="translate(-91.48 -91.48)"/><path class="cls-1" d="M1238.1,610c22,2.26,185.68,21.39,239.83,136,25.1,53.13,22.94,118.89,21.62,159.06-2.84,86.59-26.16,131-19.76,133.81,19.91,8.88,301-396,202.14-508.87C1596.6,432.51,1265.76,596.05,1238.1,610Z" transform="translate(-91.48 -91.48)"/><ellipse class="cls-1" cx="1611.44" cy="728.74" rx="161.45" ry="241.78"/><path class="cls-3" d="M2052.85,1006.48h0c51.13-70.48,78.34-138,60.77-150.7L1804.31,631.39c-17.57-12.75-73.27,34.05-124.4,104.53h0c-51.13,70.48-78.34,138-60.77,150.7L1928.45,1111C1946,1123.77,2001.72,1077,2052.85,1006.48Z" transform="translate(-91.48 -91.48)"/></svg>