<svg id="Layer_1" data-name="Layer 1" xmlns="http://www.w3.org/2000/svg" viewBox="0 0 2952 1800"><defs><style>.cls-1{fill:#fff;}.cls-2{fill:#231f20;}.cls-3{fill:#fbb040;}.cls-4{fill:#8dc63f;}.cls-5{fill:#00a79d;}</style></defs><rect class="cls-1" x="233.9" y="41.5" width="2664" height="512" rx="180"/><path class="cls-2" d="M2749.9,1195.5H445.9c-110.28,0-200-89.72-200-200v-152c0-110.28,89.72-200,200-200h2304c110.28,0,200,89.72,200,200v152C2949.9,1105.78,2860.18,1195.5,2749.9,1195.5Zm-2304-512c-88.22,0-160,71.78-160,160v152c0,88.22,71.78,160,160,160h2304c88.22,0,160-71.78,160-160v-152c0-88.22-71.78-160-160-160Z" transform="translate(-32 -622)"/><path class="cls-3" d="M427.65,83.33H2655.9a0,0,0,0,1,0,0V511.67a0,0,0,0,1,0,0H427.65A155.75,155.75,0,0,1,271.9,355.92V239.08A155.75,155.75,0,0,1,427.65,83.33Z"/><rect class="cls-1" x="2702.1" width="249.9" height="636"/><path class="cls-1" d="M363.48,141.5H2655.9a0,0,0,0,1,0,0v14a0,0,0,0,1,0,0H363.48a3.58,3.58,0,0,1-3.58-3.58v-6.84a3.58,3.58,0,0,1,3.58-3.58Z"/><path class="cls-1" d="M2695.06,784.66H395.48a10.75,10.75,0,0,1-10.74-10.74v-6.84a10.75,10.75,0,0,1,10.74-10.74H2695.06Z" transform="translate(-32 -622)"/><path class="cls-1" d="M363.48,290.5H2655.9a0,0,0,0,1,0,0v14a0,0,0,0,1,0,0H363.48a3.58,3.58,0,0,1-3.58-3.58v-6.84a3.58,3.58,0,0,1,3.58-3.58Z"/><path class="cls-1" d="M2695.06,933.66H395.48a10.75,10.75,0,0,1-10.74-10.74v-6.84a10.75,10.75,0,0,1,10.74-10.74H2695.06Z" transform="translate(-32 -622)"/><path class="cls-1" d="M363.48,439.5H2655.9a0,0,0,0,1,0,0v14a0,0,0,0,1,0,0H363.48a3.58,3.58,0,0,1-3.58-3.58v-6.84a3.58,3.58,0,0,1,3.58-3.58Z"/><path class="cls-1" d="M2695.06,1082.66H395.48a10.75,10.75,0,0,1-10.74-10.74v-6.84a10.75,10.75,0,0,1,10.74-10.74H2695.06Z" transform="translate(-32 -622)"/><rect class="cls-1" x="70.1" y="1245.5" width="2664" height="512" rx="180" transform="translate(2772.2 2381) rotate(-180)"/><path class="cls-2" d="M2554.1,1777.5H250.1c-110.28,0-200-89.72-200-200v-152c0-110.28,89.72-200,200-200h2304c110.28,0,200,89.72,200,200v152C2754.1,1687.78,2664.38,1777.5,2554.1,1777.5Zm-2304-512c-88.22,0-160,71.78-160,160v152c0,88.22,71.78,160,160,160h2304c88.23,0,160-71.78,160-160v-152c0-88.22-71.77-160-160-160Z" transform="translate(-32 -622)"/><path class="cls-4" d="M467.85,1287.33H2696.1a0,0,0,0,1,0,0v428.34a0,0,0,0,1,0,0H467.85A155.75,155.75,0,0,1,312.1,1559.92V1443.08a155.75,155.75,0,0,1,155.75-155.75Z" transform="translate(2976.2 2381) rotate(-180)"/><rect class="cls-1" x="32" y="1158" width="233.9" height="648.5" transform="translate(265.9 2342.5) rotate(-180)"/><path class="cls-1" d="M315.68,1345.5H2608.1a0,0,0,0,1,0,0v14a0,0,0,0,1,0,0H315.68a3.58,3.58,0,0,1-3.58-3.58v-6.84A3.58,3.58,0,0,1,315.68,1345.5Z" transform="translate(2888.2 2083) rotate(-180)"/><path class="cls-1" d="M2604.52,1366.66H304.94v-28.32H2604.52a10.75,10.75,0,0,1,10.74,10.74v6.84A10.75,10.75,0,0,1,2604.52,1366.66Z" transform="translate(-32 -622)"/><path class="cls-1" d="M315.68,1494.5H2608.1a0,0,0,0,1,0,0v14a0,0,0,0,1,0,0H315.68a3.58,3.58,0,0,1-3.58-3.58v-6.84a3.58,3.58,0,0,1,3.58-3.58Z" transform="translate(2888.2 2381) rotate(-180)"/><path class="cls-1" d="M2604.52,1515.66H304.94v-28.32H2604.52a10.75,10.75,0,0,1,10.74,10.74v6.84A10.75,10.75,0,0,1,2604.52,1515.66Z" transform="translate(-32 -622)"/><path class="cls-1" d="M315.68,1643.5H2608.1a0,0,0,0,1,0,0v14a0,0,0,0,1,0,0H315.68a3.58,3.58,0,0,1-3.58-3.58v-6.84a3.58,3.58,0,0,1,3.58-3.58Z" transform="translate(2888.2 2679) rotate(-180)"/><path class="cls-1" d="M2604.52,1664.66H304.94v-28.32H2604.52a10.75,10.75,0,0,1,10.74,10.74v6.84A10.75,10.75,0,0,1,2604.52,1664.66Z" transform="translate(-32 -622)"/><rect class="cls-1" x="233.9" y="1202.5" width="2664" height="512" rx="180"/><path class="cls-2" d="M2749.9,2356.5H445.9c-110.28,0-200-89.72-200-200v-152c0-110.28,89.72-200,200-200h2304c110.28,0,200,89.72,200,200v152C2949.9,2266.78,2860.18,2356.5,2749.9,2356.5Zm-2304-512c-88.22,0-160,71.78-160,160v152c0,88.22,71.78,160,160,160h2304c88.22,0,160-71.78,160-160v-152c0-88.22-71.78-160-160-160Z" transform="translate(-32 -622)"/><path class="cls-5" d="M427.65,1244.33H2655.9a0,0,0,0,1,0,0v428.34a0,0,0,0,1,0,0H427.65A155.75,155.75,0,0,1,271.9,1516.92V1400.08a155.75,155.75,0,0,1,155.75-155.75Z"/><rect class="cls-1" x="2702.1" y="1132" width="249.9" height="668"/><path class="cls-1" d="M363.48,1302.5H2655.9a0,0,0,0,1,0,0v14a0,0,0,0,1,0,0H363.48a3.58,3.58,0,0,1-3.58-3.58v-6.84A3.58,3.58,0,0,1,363.48,1302.5Z"/><path class="cls-1" d="M2695.06,1945.66H395.48a10.75,10.75,0,0,1-10.74-10.74v-6.84a10.75,10.75,0,0,1,10.74-10.74H2695.06Z" transform="translate(-32 -622)"/><path class="cls-1" d="M363.48,1451.5H2655.9a0,0,0,0,1,0,0v14a0,0,0,0,1,0,0H363.48a3.58,3.58,0,0,1-3.58-3.58v-6.84a3.58,3.58,0,0,1,3.58-3.58Z"/><path class="cls-1" d="M2695.06,2094.66H395.48a10.75,10.75,0,0,1-10.74-10.74v-6.84a10.75,10.75,0,0,1,10.74-10.74H2695.06Z" transform="translate(-32 -622)"/><path class="cls-1" d="M363.48,1600.5H2655.9a0,0,0,0,1,0,0v14a0,0,0,0,1,0,0H363.48a3.58,3.58,0,0,1-3.58-3.58v-6.84a3.58,3.58,0,0,1,3.58-3.58Z"/><path class="cls-1" d="M2695.06,2243.66H395.48a10.75,10.75,0,0,1-10.74-10.74v-6.84a10.75,10.75,0,0,1,10.74-10.74H2695.06Z" transform="translate(-32 -622)"/></svg>