<svg id="Layer_1" data-name="Layer 1" xmlns="http://www.w3.org/2000/svg" viewBox="0 0 5882.11 1487.91"><defs><style>.cls-1{fill:#231f20;}.cls-2{fill:#ffde17;}.cls-3{fill:#fff;}.cls-4,.cls-8{fill:#78c58c;}.cls-5,.cls-7{fill:#00a79d;}.cls-6{fill:#f1616e;}.cls-7,.cls-8,.cls-9{stroke:#ffeac9;stroke-miterlimit:10;}.cls-7,.cls-8{stroke-width:20px;}.cls-9{fill:#d7df23;stroke-width:5px;}</style></defs><path class="cls-1" d="M1868.78,1237.55H321.47c-74.07,0-134.32-72.74-134.32-162.14V952.19c0-89.4,60.25-162.14,134.32-162.14H1868.78c74.06,0,134.31,72.74,134.31,162.14v123.22C2003.09,1164.81,1942.84,1237.55,1868.78,1237.55ZM321.47,822.48C262.22,822.48,214,880.67,214,952.19v123.22c0,71.52,48.21,129.71,107.46,129.71H1868.78c59.25,0,107.45-58.19,107.45-129.71V952.19c0-71.52-48.2-129.71-107.45-129.71Z" transform="translate(-52.19 -786.12)"/><path class="cls-2" d="M288.83,54.06H1775a0,0,0,0,1,0,0V401.3a0,0,0,0,1,0,0H288.83A114.92,114.92,0,0,1,173.92,286.38V169A114.92,114.92,0,0,1,288.83,54.06Z"/><path class="cls-3" d="M235.66,101.21H1775a0,0,0,0,1,0,0v11.35a0,0,0,0,1,0,0H235.66a2.64,2.64,0,0,1-2.64-2.64v-6.07a2.64,2.64,0,0,1,2.64-2.64Z"/><path class="cls-3" d="M1832,904.49H287.6c-4,0-7.21-3.91-7.21-8.71v-5.54c0-4.8,3.24-8.71,7.21-8.71H1832Z" transform="translate(-52.19 -786.12)"/><path class="cls-3" d="M235.66,222H1775a0,0,0,0,1,0,0v11.35a0,0,0,0,1,0,0H235.66a2.64,2.64,0,0,1-2.64-2.64v-6.07A2.64,2.64,0,0,1,235.66,222Z"/><path class="cls-3" d="M1832,1025.28H287.6c-4,0-7.21-3.91-7.21-8.71V1011c0-4.8,3.24-8.71,7.21-8.71H1832Z" transform="translate(-52.19 -786.12)"/><path class="cls-3" d="M235.66,342.8H1775a0,0,0,0,1,0,0v11.35a0,0,0,0,1,0,0H235.66A2.64,2.64,0,0,1,233,351.5v-6.07a2.64,2.64,0,0,1,2.64-2.64Z"/><path class="cls-3" d="M1832,1146.07H287.6c-4,0-7.21-3.9-7.21-8.71v-5.54c0-4.8,3.24-8.71,7.21-8.71H1832Z" transform="translate(-52.19 -786.12)"/><path class="cls-1" d="M1737.28,1709.36H190c-74.06,0-134.31-72.73-134.31-162.13V1424c0-89.41,60.25-162.14,134.31-162.14H1737.28c74.07,0,134.32,72.73,134.32,162.14v123.22C1871.6,1636.63,1811.35,1709.36,1737.28,1709.36ZM190,1294.3c-59.25,0-107.45,58.18-107.45,129.71v123.22c0,71.52,48.2,129.71,107.45,129.71H1737.28c59.25,0,107.46-58.19,107.46-129.71V1424c0-71.53-48.21-129.71-107.46-129.71Z" transform="translate(-52.19 -786.12)"/><path class="cls-4" d="M346.53,1312H1832.65a0,0,0,0,1,0,0v347.25a0,0,0,0,1,0,0H346.53a114.92,114.92,0,0,1-114.92-114.92V1426.91A114.92,114.92,0,0,1,346.53,1312Z" transform="translate(2012.07 2185.11) rotate(-180)"/><path class="cls-3" d="M234.25,1359.15h1539.3a0,0,0,0,1,0,0v11.35a0,0,0,0,1,0,0H234.25a2.64,2.64,0,0,1-2.64-2.64v-6.07a2.64,2.64,0,0,1,2.64-2.64Z" transform="translate(1952.97 1943.53) rotate(-180)"/><path class="cls-3" d="M1771.15,1376.3H226.8v-23H1771.15c4,0,7.21,3.9,7.21,8.7v5.55C1778.36,1372.4,1775.12,1376.3,1771.15,1376.3Z" transform="translate(-52.19 -786.12)"/><path class="cls-3" d="M234.25,1479.94h1539.3a0,0,0,0,1,0,0v11.35a0,0,0,0,1,0,0H234.25a2.64,2.64,0,0,1-2.64-2.64v-6.07a2.64,2.64,0,0,1,2.64-2.64Z" transform="translate(1952.97 2185.11) rotate(-180)"/><path class="cls-3" d="M1771.15,1497.1H226.8v-23H1771.15c4,0,7.21,3.9,7.21,8.7v5.55C1778.36,1493.19,1775.12,1497.1,1771.15,1497.1Z" transform="translate(-52.19 -786.12)"/><path class="cls-3" d="M234.25,1600.73h1539.3a0,0,0,0,1,0,0v11.35a0,0,0,0,1,0,0H234.25a2.64,2.64,0,0,1-2.64-2.64v-6.07a2.64,2.64,0,0,1,2.64-2.64Z" transform="translate(1952.97 2426.69) rotate(-180)"/><path class="cls-3" d="M1771.15,1617.89H226.8v-23H1771.15c4,0,7.21,3.91,7.21,8.71v5.54C1778.36,1614,1775.12,1617.89,1771.15,1617.89Z" transform="translate(-52.19 -786.12)"/><path class="cls-1" d="M1868.78,2178.75H321.47c-74.07,0-134.32-72.73-134.32-162.14V1893.39c0-89.4,60.25-162.14,134.32-162.14H1868.78c74.06,0,134.31,72.74,134.31,162.14v123.22C2003.09,2106,1942.84,2178.75,1868.78,2178.75ZM321.47,1763.68c-59.25,0-107.46,58.19-107.46,129.71v123.22c0,71.52,48.21,129.71,107.46,129.71H1868.78c59.25,0,107.45-58.19,107.45-129.71V1893.39c0-71.52-48.2-129.71-107.45-129.71Z" transform="translate(-52.19 -786.12)"/><path class="cls-5" d="M288.83,995.26H1775a0,0,0,0,1,0,0V1342.5a0,0,0,0,1,0,0H288.83a114.92,114.92,0,0,1-114.92-114.92V1110.17A114.92,114.92,0,0,1,288.83,995.26Z"/><rect class="cls-6" x="1840.13" width="167.83" height="1435.88"/><path class="cls-3" d="M235.66,1042.41H1775a0,0,0,0,1,0,0v11.35a0,0,0,0,1,0,0H235.66a2.64,2.64,0,0,1-2.64-2.64v-6.07A2.64,2.64,0,0,1,235.66,1042.41Z"/><path class="cls-3" d="M1832,1845.69H287.6c-4,0-7.21-3.91-7.21-8.71v-5.54c0-4.8,3.24-8.71,7.21-8.71H1832Z" transform="translate(-52.19 -786.12)"/><path class="cls-3" d="M235.66,1163.2H1775a0,0,0,0,1,0,0v11.35a0,0,0,0,1,0,0H235.66a2.64,2.64,0,0,1-2.64-2.64v-6.07a2.64,2.64,0,0,1,2.64-2.64Z"/><path class="cls-3" d="M1832,1966.48H287.6c-4,0-7.21-3.91-7.21-8.71v-5.54c0-4.8,3.24-8.71,7.21-8.71H1832Z" transform="translate(-52.19 -786.12)"/><path class="cls-3" d="M235.66,1284H1775a0,0,0,0,1,0,0v11.35a0,0,0,0,1,0,0H235.66a2.64,2.64,0,0,1-2.64-2.64v-6.07A2.64,2.64,0,0,1,235.66,1284Z"/><path class="cls-3" d="M1832,2087.27H287.6c-4,0-7.21-3.9-7.21-8.7V2073c0-4.8,3.24-8.71,7.21-8.71H1832Z" transform="translate(-52.19 -786.12)"/><rect class="cls-6" y="52.03" width="109.06" height="1435.88"/><path class="cls-7" d="M2248.32,1424.63v291.09a15.08,15.08,0,0,1-2.44,8.55c-1.63,2.44-4.45,4.37-8.5,5.8a92.84,92.84,0,0,1-16.38,3.67,208.28,208.28,0,0,1-50.07,0,102,102,0,0,1-16.39-3.67q-6.37-2.14-8.8-5.8a15,15,0,0,1-2.42-8.55V1424.63L1919.93,979.14q-6.73-14-8.25-22t3.06-12.21c3-2.84,8.53-4.69,16.47-5.5s18.61-1.22,32-1.22a288.33,288.33,0,0,1,29.61,1.22,94.81,94.81,0,0,1,18,3.36q6.71,2.16,10.08,6.11a50.39,50.39,0,0,1,6.41,10.06l109.25,227q15.21,32.34,30.39,67.75t31,71.39h1.22q14-34.79,28.81-69.27t30.11-68l109.86-228.24a30.78,30.78,0,0,1,5.19-10.37,20.2,20.2,0,0,1,9.16-6.41,73.51,73.51,0,0,1,16.17-3.36,232.29,232.29,0,0,1,26.25-1.22q22,0,34.47,1.53t17.39,5.8q4.88,4.27,3.36,12.2t-8.24,21.36Z" transform="translate(-52.19 -786.12)"/><path class="cls-7" d="M3012.06,1435.46q0,67.17-17.68,123.67t-52.77,97.4q-35.09,40.93-87.84,63.83t-122.3,22.89q-67.74,0-118-20.15t-83.87-58.63q-33.57-38.48-50-93.44t-16.47-124.59q0-67.17,17.38-123.66t52.47-97.42q35.06-40.92,87.53-63.51t122.61-22.6q67.71,0,118,20.16T2945,1218q33.57,38.49,50.33,93.44T3012.06,1435.46Zm-104,6.51a410.09,410.09,0,0,0-8.33-84.29q-8.34-39.71-27.43-69.66t-51.8-47.34q-32.7-17.42-81.39-17.43-45,0-77.39,15.89a141.89,141.89,0,0,0-53.34,44.91q-21,29-31.15,68.73t-10.17,86.75a412.75,412.75,0,0,0,8.33,84.93q8.33,39.69,27.75,69.34t52.09,47q32.68,17.42,81.41,17.4,44.39,0,77.08-15.87a142.42,142.42,0,0,0,53.64-44.61q21-28.71,30.83-68.42T2908.06,1442Z" transform="translate(-52.19 -786.12)"/><path class="cls-8" d="M3693.24,1504.66q0,37.26-9.47,68.72a203,203,0,0,1-26.58,56.5,196.92,196.92,0,0,1-41.21,44,238.69,238.69,0,0,1-54.36,31.75,310.5,310.5,0,0,1-64.75,19.25q-34.5,6.42-79.1,6.4H3211.33q-14.05,0-26.57-9.45t-12.52-33.28V984q0-23.82,12.52-33.27t26.57-9.47h179.61q70.86,0,116.07,13.43t75.45,39.06a161.55,161.55,0,0,1,45.5,62.86q15.28,37.22,15.28,84.2a211.33,211.33,0,0,1-6.72,53.7,177.53,177.53,0,0,1-19.86,47.3,161.17,161.17,0,0,1-33,38.75,174.49,174.49,0,0,1-45.52,28.06,191.59,191.59,0,0,1,60.44,22.3,184.22,184.22,0,0,1,49.16,41.23q21,25,33.26,58.63T3693.24,1504.66Zm-158-353.77q0-28.71-7.94-51.93a96.28,96.28,0,0,0-25-39.41q-17.12-16.17-44.6-24.73t-72.68-8.57H3276.24v256H3396q40.92,0,66-10.68t41.54-28.72a111.31,111.31,0,0,0,24.12-42.16A164.13,164.13,0,0,0,3535.24,1150.89Zm48,359.85q0-35.34-11.31-62.17a118.08,118.08,0,0,0-33-45.11q-21.71-18.29-54.42-27.75t-82.25-9.46h-126v278h152.89q36.07,0,63-8.53a141.42,141.42,0,0,0,47.39-25.3,116.69,116.69,0,0,0,32.11-41.76Q3583.25,1543.67,3583.24,1510.74Z" transform="translate(-52.19 -786.12)"/><path class="cls-8" d="M4351.17,1435.46q0,67.17-17.69,123.67t-52.76,97.4q-35.09,40.93-87.85,63.83t-122.29,22.89q-67.74,0-118-20.15t-83.87-58.63q-33.57-38.48-50-93.44t-16.47-124.59q0-67.17,17.38-123.66t52.46-97.42q35.07-40.92,87.54-63.51t122.61-22.6q67.71,0,118,20.16t83.87,58.62q33.57,38.49,50.33,93.44T4351.17,1435.46Zm-104,6.51a410.09,410.09,0,0,0-8.33-84.29q-8.34-39.71-27.43-69.66t-51.8-47.34q-32.7-17.42-81.39-17.43-45,0-77.39,15.89a141.92,141.92,0,0,0-53.35,44.91q-21,29-31.14,68.73t-10.17,86.75a412.75,412.75,0,0,0,8.33,84.93q8.33,39.69,27.75,69.34t52.09,47q32.67,17.42,81.41,17.4,44.39,0,77.08-15.87a142.42,142.42,0,0,0,53.64-44.61q21-28.71,30.83-68.42T4247.17,1442Z" transform="translate(-52.19 -786.12)"/><path class="cls-8" d="M5010.35,1435.46q0,67.17-17.69,123.67t-52.76,97.4q-35.08,40.93-87.85,63.83t-122.29,22.89q-67.74,0-118.05-20.15t-83.88-58.63q-33.56-38.48-50-93.44t-16.47-124.59q0-67.17,17.37-123.66t52.47-97.42q35.07-40.92,87.53-63.51t122.61-22.6q67.71,0,118,20.16t83.87,58.62q33.57,38.49,50.33,93.44T5010.35,1435.46Zm-104,6.51a410.09,410.09,0,0,0-8.33-84.29q-8.34-39.71-27.44-69.66t-51.79-47.34q-32.7-17.42-81.39-17.43-45,0-77.39,15.89a141.92,141.92,0,0,0-53.35,44.91q-21,29-31.14,68.73t-10.17,86.75a412.75,412.75,0,0,0,8.33,84.93q8.31,39.69,27.75,69.34t52.09,47q32.67,17.42,81.41,17.4,44.39,0,77.08-15.87a142.42,142.42,0,0,0,53.64-44.61q21-28.71,30.82-68.42T4906.35,1442Z" transform="translate(-52.19 -786.12)"/><path class="cls-8" d="M5609.53,1715.69a15.09,15.09,0,0,1-2.44,8.56q-2.44,3.69-8.23,6.13c-3.88,1.61-9.25,2.84-16.16,3.65a230,230,0,0,1-26.22,1.22q-16.47,0-27.14-.9a94.39,94.39,0,0,1-18-3.07,31,31,0,0,1-11.9-6.11,46.4,46.4,0,0,1-8.23-9.48l-231.7-304.39v305a13.71,13.71,0,0,1-2.46,8.27c-1.62,2.25-4.28,4.18-7.95,5.81s-8.78,2.84-15.31,3.65a208.69,208.69,0,0,1-25.1,1.22,202.29,202.29,0,0,1-24.48-1.22,61.46,61.46,0,0,1-15.61-3.65c-3.87-1.63-6.53-3.56-7.95-5.81a14.93,14.93,0,0,1-2.14-8.24V900.78a16.45,16.45,0,0,1,2.14-8.53c1.42-2.43,4.08-4.48,7.95-6.11a60.94,60.94,0,0,1,15.61-3.67,204.37,204.37,0,0,1,24.48-1.22,210.8,210.8,0,0,1,25.1,1.22c6.53.81,11.62,2,15.31,3.66a17.88,17.88,0,0,1,7.95,6.11,15,15,0,0,1,2.46,8.53v496.47l207.28-228.6a53.83,53.83,0,0,1,10.36-10.07,52.86,52.86,0,0,1,13.11-6.74,71.59,71.59,0,0,1,18-3.65q10.36-.92,25-.93,15.24,0,25.61.93a75.25,75.25,0,0,1,16.77,3q6.39,2.16,9.14,5.5a13.64,13.64,0,0,1,2.75,8.88,30.66,30.66,0,0,1-4,14.67q-4,7.34-13.11,17.11l-198.92,199.25L5594.89,1687a129.58,129.58,0,0,1,11.28,16.81A26.08,26.08,0,0,1,5609.53,1715.69Z" transform="translate(-52.19 -786.12)"/><path class="cls-8" d="M5924.29,1667.75q0,20.13-2.75,33.24t-10.37,21.33c-5.09,5.5-11.7,9.34-19.84,11.59s-18.52,3.34-31.13,3.34-23.09-1.12-31.44-3.34-14.95-6.09-19.83-11.59-8.25-12.6-10.07-21.33-2.74-19.82-2.74-33.24.91-24.68,2.74-33.83,5.18-16.25,10.07-21.34,11.49-8.73,19.83-11,18.82-3.36,31.44-3.36,23,1.13,31.13,3.36,14.75,5.89,19.84,11,8.53,12.2,10.37,21.34S5924.29,1654.35,5924.29,1667.75Zm-18.92-164a16.73,16.73,0,0,1-2.14,8.56q-2.16,3.66-7.64,6.11a53.89,53.89,0,0,1-14,3.65,187.6,187.6,0,0,1-42.72,0,54,54,0,0,1-14.05-3.65c-3.65-1.63-6.2-3.67-7.62-6.11a16.73,16.73,0,0,1-2.13-8.56L5804.67,921a25.85,25.85,0,0,1,1.81-12.82q2.44-5.48,8.86-9.17c4.27-2.44,9.95-4.17,17.08-5.19a204.9,204.9,0,0,1,27.78-1.53,165.54,165.54,0,0,1,27.16,1.85q10.68,1.83,17.09,5.5c4.27,2.43,7.22,5.39,8.84,8.84a29.24,29.24,0,0,1,2.46,12.52Z" transform="translate(-52.19 -786.12)"/><path class="cls-9" d="M2148.16,1969.73h137.55v15.6H1992.13v-15.6h134.3v-19.9h-111.6v-14.39h111.6v-18.67H2024.89v-14.08h101.54V1882.8H1993.1v-15.61h133.33v-19.28h-98v-14.39h98v-22.34l28.22,1.83c-.32,2.15-1.94,3.37-6.49,4v16.53h93.76v33.67h42.17v15.61h-42.17v34h-93.76v18.67h114.19v14.39H2148.16ZM2035,2097.05V2001h210.21v95.49h-21.73v-10.1H2056v10.71Zm188.48-81.11H2056v20.2h167.4Zm-167.4,55.4h167.4v-21.12H2056Zm92.13-223.43v19.28h72v-19.28Zm0,34.89v19.89h72V1882.8Z" transform="translate(-52.19 -786.12)"/><path class="cls-9" d="M2392.12,1994.21v10.71c13.62,9.8,46.71,36.43,55.47,43.77l-12.33,14.69c-8.43-8.57-27.89-25.4-43.14-38.26v71.63h-20.76v-79.89c-14.28,24.18-33.74,48.67-50.93,64.28a67.24,67.24,0,0,0-12-15c19.79-15.61,42.82-45,56.45-71.93h-51.26v-15.92h57.75v-23h-44.45v-15.92h44.45v-22.34h-49.31v-15.92h49.31v-24.48l19.14,1.22c-2.92-7.65-7.79-16.53-12.33-24.18h-20.76a187.24,187.24,0,0,1-28.87,32.75,123.9,123.9,0,0,0-16.22-11c18.16-14.69,36-40.09,46.71-65.19l25,8c-1,1.53-3.24,2.75-6.81,2.45-2.6,5.51-5.52,10.71-8.76,16.22h90.18v16.83h-59c5.52,9.18,10.71,19,13,26l-19.47,5.51-1-2.76v18.67h48v15.92h-48v22.34h43.47v15.92h-43.47v23h54.5v15.92Zm180.69-40.4H2613v16.53h-171v-16.53H2481v-34.89h-31.46V1903H2481v-26.32l26.61,1.53c-.33,2.14-2,3.67-6.17,4V1903h50.93v-21.12l-12.65,4.29c-4.22-8.88-13.3-21.73-22.38-32.45H2484.9a173.47,173.47,0,0,1-31.47,30.92,115,115,0,0,0-17.52-10.1c20.76-14.39,40.88-38.57,51.58-64.28l25.31,7.35q-1,2.75-6.82,2.75a138.15,138.15,0,0,1-9.08,16.53h115.81v16.83h-72c6.81,8,13,16.22,16.54,23.26l21.73,1.23c-.32,2.14-1.94,3.67-6.16,4V1903h33.09v15.92h-33.09Zm-107.7,142.94V1989h127.16v106.51h-21.08V2087h-85.64v9.8ZM2571.19,2004h-85.64v26.32h85.64Zm-85.64,67.64h85.64v-26.94h-85.64Zm15.89-152.73v34.89h50.93v-34.89Z" transform="translate(-52.19 -786.12)"/><path class="cls-9" d="M2884.24,1863.21v207.21h-23.68v-16.83H2656.19v-20.51h204.37V1883.72H2659.43v-20.51Z" transform="translate(-52.19 -786.12)"/><path class="cls-9" d="M3005.58,2052.06c82.39-21.73,147.92-59.07,187.82-125.8,4.22,5.21,12.33,11.63,17.2,15.31-43.8,70.39-116.14,111.41-213.78,135.59-.65,2.45-2.6,5.2-5.19,6.12L2978,2061.85l3.89-5.81V1830.46l33.42,1.53c-.33,3.37-3.25,6.12-9.73,6.73Z" transform="translate(-52.19 -786.12)"/><path class="cls-9" d="M3484.4,1878.51a21.3,21.3,0,0,1-4.87,4.29c-34.06,99.17-87.26,162.83-176.8,205.68-3.89-5.2-10.05-12.24-16.54-16.83,85-38.87,137.55-100.09,164.47-181.2H3334.85a320.57,320.57,0,0,1-72.67,75.6,126.8,126.8,0,0,0-18.49-14.08c44.12-32.14,81.43-79,103.49-132.83l30.82,8.26c-1.3,3.06-5.19,4-9.41,4-6.49,13.47-13.3,26.32-20.76,38.56H3462l3.89-1.83Z" transform="translate(-52.19 -786.12)"/><path class="cls-9" d="M3535.66,1908.2c29.2,6.13,65.53,17.76,87.26,27.55l-9.73,19.28c-21.41-9.79-58.72-22-87.26-28.15Zm19.46,149.68c105.43-33.37,177.45-86.32,220.6-178.14,4.86,4,14.92,10.41,19.78,13.47-43.46,90.9-119.05,147.52-218.32,180.89a7.07,7.07,0,0,1-3.89,7.65Zm16.22-225.58c29.2,7.34,64.88,19.59,86.94,30l-10.7,18.67c-23-11-56.77-23.26-86-30.91Z" transform="translate(-52.19 -786.12)"/><path class="cls-9" d="M4004.11,1900.25v186.09h-19.47v-13.47H3839v-17.14h145.65V1993.6H3852v-17.14h132.68v-59.38H3847.1v-16.83Z" transform="translate(-52.19 -786.12)"/><path class="cls-9" d="M4089.76,1845.15c33.74,10.1,72.67,26,96.67,41.63l-12.33,19.28c-23.35-15.61-61.63-31.83-94.72-42.54Zm-1.3,212.11c115.16-33.67,191.72-94.57,230.65-179.36a127.16,127.16,0,0,0,21.09,12.55c-40.55,83.87-119.71,149.06-229.68,183.65a10,10,0,0,1-4.54,7Z" transform="translate(-52.19 -786.12)"/><path class="cls-9" d="M4648.39,1942.79a4.75,4.75,0,0,1-2,.61,8.54,8.54,0,0,1-4.87-1.83c-24.65,7.65-60.66,20.2-87.58,31.22q1,10.56,1,23.87c0,9.79-.33,20.81-1,32.75l-23.69,1.22c1-11,1.63-25.09,1.63-37,0-4.59,0-8.88-.33-12.24-36.66,16.83-66.5,37.34-66.5,55.7,0,17.75,22.38,26.32,67.15,26.32,31.47,0,60.66-.61,81.43-3.06l.32,20.51c-19.14,1.84-48.34,2.45-81.75,2.45-62.28,0-89.86-14.08-89.86-45.3,0-26.93,37.63-53,86.29-75.91-1.94-19.28-11-28.77-24-28.77-23.68,0-48.34,12.55-77.54,43.16-9.08,9.49-21.73,21.42-35.68,33.36l-15.9-15c32.44-26.93,62.94-52.64,81.75-112.94l-18.16.31H4385v-19.9c19.79.31,42.82.31,56.12.31l22.06-.31a378.18,378.18,0,0,0,8.76-43.77l31.79,3.68c-.65,3.06-3.24,4.89-8.11,5.51-2.27,12.24-5.19,23-8.11,34,22.06-.31,69.43-5.2,111.6-17.75l3.89,20.51c-40.55,11.93-89.53,16.22-121.65,17.14-7.79,23-15.9,41.32-23.36,51.72h.33c14.27-11.93,35.68-19.89,52.23-19.89,22.06,0,36,15,40.22,39.79,27.25-11.63,61.64-24.18,87.59-33.67Z" transform="translate(-52.19 -786.12)"/><path class="cls-9" d="M4724.3,1919.83a362.78,362.78,0,0,1-39.58,51.12,148.4,148.4,0,0,0-11.35-19.28c31.14-31.84,62.28-84.79,81.1-137.74l25.95,8.27c-1.3,2.14-3.57,3.06-7.46,2.75a539.5,539.5,0,0,1-29.84,63.36l8.75,2.14c-.64,1.84-2.27,3.37-6.48,3.67v202.93H4724.3Zm255.3,64.28h-79.8c21.41,33.67,56.45,66.11,88.89,82.64a85.34,85.34,0,0,0-15.57,16.53c-31.47-18.67-64.88-52.65-87.27-88.15v101h-21.73v-99.47c-23.36,35.51-58.4,68.26-91.48,86a94.94,94.94,0,0,0-15.25-16.53c34.39-15.92,70.72-48.36,93.1-82h-84.34v-19.28h98v-35.51h-73V1826.48h170.63v102.84h-75.91v35.51h93.75Zm-167.39-139v65.5h128.14v-65.5Z" transform="translate(-52.19 -786.12)"/><path class="cls-9" d="M5299.15,1872.09H5120.08A396.68,396.68,0,0,1,5079.2,1941l3.57.92c-.65,2.14-2.6,3.67-6.49,4v150.28h-21.73v-126.4a270.2,270.2,0,0,1-40.55,34.89c-2.6-5.51-8.44-14.08-11.68-18.67,19.79-13.47,37-30,52.23-48.36v-2.45l1.62.3a351.09,351.09,0,0,0,39.58-63.35h-83.7V1852.5h92.45a406.1,406.1,0,0,0,14.28-40.71l28.22,7c-1,2.14-3.24,3.37-7.46,3.37-3.24,10.1-6.81,20.2-11,30.3h170.64Zm6.48,117.84v19.28H5216.1v61.52c0,12.86-2.92,19-13.3,22s-28.55,3.36-57.42,3.36a66.55,66.55,0,0,0-7.14-19.89c11.68.31,22.39.61,30.82.61,24,0,25-.3,25-6.12v-61.52h-93.75v-19.28H5194v-29.39l8.43.31a246.07,246.07,0,0,0,43.8-32.75H5128.83v-19h137.88l3.89-1.22,16.87,10.4a5.83,5.83,0,0,1-4.87,2.45c-16.54,16.84-42.82,37.65-66.5,51.42v17.76Z" transform="translate(-52.19 -786.12)"/><path class="cls-9" d="M5489.57,1862.29c-.32-6.73-1.29-40.09-1.94-47.75l33.41,1.23c-.32,2.45-2.59,5.51-8.43,6.43,0,3.67,0,7.34.64,39.48,39.91-1.22,81.75-2.14,106.08-2.45v21.12c-27.57-.61-66.82,0-105.43,1.23.65,23.87,1.3,45.91,2.27,62.74,3.25,10.1,3.9,19.28,3.9,32.14,0,9.79-1,21.12-3.25,29.69-8.43,35.81-36.33,67.34-93.42,88.76a171.8,171.8,0,0,0-16.55-17.45c49.63-16.83,76.24-42.23,84.35-71.31h-.33a41.49,41.49,0,0,1-33.41,16.22c-28.87,0-54.5-22.34-54.5-53.56-.33-32.45,27.57-57.24,58.39-57.24,11.68,0,23.68,4,30.17,9.49,0-5.2-.65-25.71-1.3-38.87-33.74.61-136.25,4-149.55,4.59l-.65-20.2,74-1.84Zm6.17,107.44c0-11.94,0-39.79-33.09-39.79-22.39.3-38.28,16.52-38.61,38.87,0,21.42,17.2,35.5,36,35.5C5483.09,2004.31,5495.74,1987.48,5495.74,1969.73Z" transform="translate(-52.19 -786.12)"/><path class="cls-9" d="M5734.83,1946.16c21.41-10.41,54.83-17.75,80.45-17.75,51.58,0,84,28.46,84,73.45,0,55.4-51.58,86-116.78,86-42.17,0-71-15.91-71-42.85,0-22.65,23.68-41,53.2-41,36.65,0,61.31,27.54,66.18,55.4,26-9.19,44.76-28.78,44.76-57.24,0-33.06-25.95-54.18-66.82-54.18-48.66,0-96.35,20.51-117.76,40.1-9.73,8.57-22.39,21.42-31.14,30.91l-16.55-15.61c29.2-28.77,122-112.33,166.1-151.2-18.82,2.45-83.7,4.9-120.68,6.12-1,2.15-4.22,4-6.81,4.59l-2.6-26c43.79-.31,127.49-3.37,151.17-6.74l4.87-2.14,17.19,19.9a16.2,16.2,0,0,1-7.79,2.75c-23,17.75-84.66,72.24-110,95.19Zm44.77,122.43a150.48,150.48,0,0,0,29.52-3.06c-3.57-23.57-22.06-43.47-46.06-43.47-16.87,0-31.8,8.57-31.8,22.65C5731.26,2063.38,5758.19,2068.59,5779.6,2068.59Z" transform="translate(-52.19 -786.12)"/></svg>